<?xml version="1.0" standalone="no"?>
<!DOCTYPE svg PUBLIC "-//W3C//DTD SVG 20010904//EN"
 "http://www.w3.org/TR/2001/REC-SVG-20010904/DTD/svg10.dtd">
<svg version="1.0" xmlns="http://www.w3.org/2000/svg"
 width="640.000000pt" height="640.000000pt" viewBox="0 0 640.000000 640.000000"
 preserveAspectRatio="xMidYMid meet">
<metadata>
Created by potrace 1.11, written by Peter Selinger 2001-2013
</metadata>
<g transform="translate(0.000000,640.000000) scale(0.100000,-0.100000)"
fill="#000000" stroke="none">
<path d="M3805 5691 c-68 -31 -115 -102 -115 -172 0 -20 -15 -55 -39 -94 -21
-33 -62 -106 -89 -161 -28 -54 -62 -114 -75 -132 -14 -19 -29 -51 -32 -73 -5
-30 -19 -50 -60 -87 -70 -65 -193 -145 -207 -136 -7 4 -8 3 -4 -4 9 -15 -326
-180 -523 -257 -322 -126 -809 -275 -958 -291 -32 -4 -65 -13 -74 -21 -14 -12
-34 -12 -119 -3 -56 5 -146 10 -199 10 l-96 0 -29 36 c-113 142 -346 60 -346
-121 0 -168 205 -256 329 -142 31 29 61 94 61 135 l0 32 93 0 c90 0 364 -24
397 -35 37 -12 87 -158 121 -350 27 -153 38 -570 19 -751 -14 -140 -43 -300
-68 -375 -22 -66 -114 -190 -153 -206 -27 -11 -41 -43 -19 -43 5 0 -21 -46
-57 -103 -89 -136 -194 -346 -229 -456 -28 -86 -30 -90 -66 -100 -173 -52
-183 -295 -16 -366 161 -66 321 101 249 260 -20 45 -70 92 -107 101 -22 6 -24
10 -19 38 30 143 216 490 294 546 22 16 48 42 58 56 l17 27 221 -6 c483 -12
1004 -111 1337 -253 98 -42 213 -111 249 -151 38 -41 89 -130 89 -154 0 -12
15 -36 34 -54 19 -17 76 -87 127 -155 112 -149 309 -354 444 -463 58 -47 99
-87 98 -96 -1 -9 -5 -37 -9 -62 -21 -149 134 -264 271 -200 152 70 152 282 0
352 -55 25 -112 24 -169 -5 l-47 -24 -57 42 c-97 72 -232 197 -326 301 -125
140 -272 339 -286 389 -27 98 105 750 232 1146 140 435 301 741 498 944 l95
99 101 -7 c121 -7 331 -45 474 -85 162 -46 160 -44 160 -88 1 -135 144 -229
268 -178 161 68 161 292 0 360 -75 31 -168 8 -220 -54 l-27 -31 -118 35 c-157
46 -331 81 -477 97 -75 7 -120 16 -123 24 -4 10 -10 10 -31 1 -20 -9 -26 -9
-30 1 -3 9 -9 9 -24 1 -12 -6 -55 -9 -103 -7 -74 3 -91 7 -176 50 -244 122
-535 413 -655 653 -24 50 -45 101 -45 115 -2 40 79 226 153 353 l40 69 32 -31
c102 -99 259 -72 317 54 75 162 -94 331 -256 256z m-199 -1003 c67 -95 287
-320 384 -393 35 -27 99 -71 142 -96 l77 -47 -57 -7 c-75 -9 -220 -40 -305
-66 -47 -14 -80 -19 -104 -14 -121 22 -335 193 -400 318 -12 23 -12 35 -4 54
6 13 11 43 11 67 0 46 29 152 86 313 l37 103 37 -74 c20 -41 63 -112 96 -158z
m-223 160 c-8 -24 -32 -97 -53 -163 -21 -66 -43 -119 -49 -118 -16 4 -34 -66
-27 -107 6 -36 3 -41 -46 -85 -64 -57 -269 -160 -418 -209 -135 -45 -268 -69
-334 -62 -28 3 -60 6 -71 6 -11 0 -76 14 -144 31 -68 16 -187 41 -265 54 -214
38 -214 38 -136 54 89 19 396 110 560 166 359 123 708 282 890 404 58 38 106
70 107 70 1 1 -5 -18 -14 -41z m15 -632 c12 -10 19 -24 15 -30 -3 -6 -3 -8 1
-4 4 3 38 -18 74 -47 37 -30 93 -67 124 -82 31 -15 57 -30 57 -33 1 -3 -52
-31 -117 -64 -64 -32 -125 -62 -134 -67 -31 -16 -77 -10 -129 16 -50 26 -50
26 -45 68 3 23 8 67 11 97 7 71 36 243 42 253 2 4 21 -14 42 -40 21 -27 48
-56 59 -67z m-182 8 c-8 -44 -18 -113 -22 -153 -7 -70 -7 -72 -33 -69 -24 3
-26 0 -23 -28 3 -31 1 -32 -50 -44 -28 -7 -88 -13 -133 -13 -72 0 -88 4 -160
38 -44 21 -113 50 -154 65 l-73 27 63 12 c153 30 415 134 539 214 30 20 56 34
57 33 2 -1 -4 -38 -11 -82z m-1183 -100 c65 -13 159 -33 209 -45 l90 -21 24
-53 c63 -137 107 -425 85 -556 -13 -83 -32 -122 -66 -145 -14 -9 -25 -24 -25
-33 -1 -9 -39 -50 -86 -91 -76 -67 -238 -234 -348 -359 l-39 -44 8 39 c29 156
37 245 42 474 8 355 -16 575 -82 773 l-33 99 52 -7 c28 -4 104 -18 169 -31z
m2366 -81 c-138 -146 -263 -350 -372 -603 -98 -230 -195 -541 -266 -856 -34
-151 -100 -507 -101 -547 -2 -33 -76 80 -148 225 -119 241 -145 310 -143 375
4 130 78 494 153 748 22 77 43 148 45 158 3 9 10 17 15 17 5 0 7 4 3 9 -7 12
42 135 94 239 41 81 113 172 137 172 8 0 14 5 14 11 0 17 78 46 185 69 136 28
211 37 334 39 l104 1 -54 -57z m-1873 -47 c54 -18 134 -48 178 -66 94 -39 105
-57 113 -190 7 -99 0 -140 -23 -140 -12 0 -15 -6 -10 -23 5 -20 -1 -26 -42
-46 -55 -26 -160 -92 -215 -134 l-38 -30 8 39 c24 116 -5 390 -59 552 -14 40
-22 72 -18 72 3 0 51 -15 106 -34z m1143 -82 c-102 -148 -232 -546 -313 -958
-14 -71 -26 -140 -26 -153 0 -65 -48 16 -85 142 -14 50 -37 146 -51 214 -27
133 -24 163 17 176 34 11 118 118 158 199 51 104 72 167 78 237 l6 56 66 41
c54 33 167 92 179 92 2 0 -11 -21 -29 -46z m-485 -123 c6 -92 5 -102 -9 -91
-8 7 -12 17 -8 23 3 5 1 7 -4 4 -6 -4 -19 3 -29 14 -10 12 -47 42 -82 68 l-64
46 59 7 c33 3 75 13 94 21 19 8 35 14 35 13 1 -1 4 -48 8 -105z m146 23 c-1
-5 -19 -28 -40 -50 l-38 -41 -6 30 c-3 16 -6 47 -6 67 l0 38 46 -17 c25 -10
45 -22 44 -27z m-337 -36 c62 -42 183 -155 175 -164 -3 -2 -28 0 -55 6 -48 11
-64 9 -203 -15 l-35 -7 -1 125 0 126 30 -16 c17 -9 57 -34 89 -55z m382 -66
c-7 -29 -28 -83 -45 -120 l-32 -67 -14 30 c-26 60 -19 89 42 155 31 33 58 59
60 57 2 -1 -3 -26 -11 -55z m-284 -148 l36 -6 -12 -35 c-6 -19 -16 -33 -21
-33 -5 1 -33 17 -62 35 -58 36 -59 33 13 43 6 1 26 -1 46 -4z m-135 -64 c32
-17 77 -47 100 -68 40 -36 41 -39 53 -134 11 -83 37 -217 67 -333 l7 -30 -40
35 c-22 19 -37 40 -35 45 3 6 2 7 -2 3 -4 -3 -49 21 -99 54 -115 75 -317 176
-419 208 -42 13 -74 28 -72 32 13 20 148 107 157 101 5 -3 7 -1 4 4 -7 11 181
113 207 113 7 0 39 -14 72 -30z m246 0 c7 -11 23 -20 35 -20 32 0 29 -12 -12
-56 l-36 -38 -15 23 c-12 16 -14 34 -9 67 7 48 18 55 37 24z m-636 -276 c190
-62 443 -209 578 -335 69 -65 75 -74 106 -161 18 -51 39 -118 47 -148 7 -30
20 -61 28 -70 7 -8 31 -56 53 -106 23 -51 57 -124 77 -164 20 -40 33 -70 28
-68 -4 2 -39 19 -78 39 -318 164 -989 299 -1482 299 -73 0 -133 4 -133 9 0 76
283 410 548 648 108 95 110 96 228 57z"/>
<path d="M2960 1466 c0 -2 8 -10 18 -17 15 -13 16 -12 3 4 -13 16 -21 21 -21
13z"/>
</g>
</svg>
